<?xml version="1.0" encoding="UTF-8" standalone="no"?>
<!-- Created with Inkscape (http://www.inkscape.org/) -->

<svg
   xmlns:osb="http://www.openswatchbook.org/uri/2009/osb"
   xmlns:dc="http://purl.org/dc/elements/1.1/"
   xmlns:cc="http://creativecommons.org/ns#"
   xmlns:rdf="http://www.w3.org/1999/02/22-rdf-syntax-ns#"
   xmlns:svg="http://www.w3.org/2000/svg"
   xmlns="http://www.w3.org/2000/svg"
   xmlns:xlink="http://www.w3.org/1999/xlink"
   xmlns:sodipodi="http://sodipodi.sourceforge.net/DTD/sodipodi-0.dtd"
   xmlns:inkscape="http://www.inkscape.org/namespaces/inkscape"
   width="210mm"
   height="297mm"
   viewBox="0 0 210 297"
   version="1.1"
   id="svg8"
   sodipodi:docname="logofinal.svg"
   inkscape:version="0.92.2pre0 (973e216, 2017-07-25)">
  <defs
     id="defs2">
    <linearGradient
       inkscape:collect="always"
       id="linearGradient2584-3">
      <stop
         style="stop-color:#030303;stop-opacity:1;"
         offset="0"
         id="stop2580" />
      <stop
         style="stop-color:#030303;stop-opacity:0.518"
         offset="1"
         id="stop2582" />
    </linearGradient>
    <linearGradient
       id="linearGradient5058"
       osb:paint="solid">
      <stop
         style="stop-color:#000000;stop-opacity:1;"
         offset="0"
         id="stop5056" />
    </linearGradient>
    <marker
       inkscape:stockid="Arrow1Lstart"
       orient="auto"
       refY="0.0"
       refX="0.0"
       id="Arrow1Lstart"
       style="overflow:visible"
       inkscape:isstock="true">
      <path
         id="path4518"
         d="M 0.0,0.0 L 5.0,-5.0 L -12.5,0.0 L 5.0,5.0 L 0.0,0.0 z "
         style="fill-rule:evenodd;stroke:#000000;stroke-width:1pt;stroke-opacity:1;fill:#000000;fill-opacity:1"
         transform="scale(0.8) translate(12.5,0)" />
    </marker>
    <linearGradient
       inkscape:collect="always"
       xlink:href="#linearGradient11025"
       id="linearGradient11033"
       x1="53.812778"
       y1="104.00171"
       x2="66.232368"
       y2="104.00171"
       gradientUnits="userSpaceOnUse" />
    <linearGradient
       inkscape:collect="always"
       id="linearGradient11025">
      <stop
         style="stop-color:#483737;stop-opacity:1;"
         offset="0"
         id="stop11021" />
      <stop
         style="stop-color:#483737;stop-opacity:0;"
         offset="1"
         id="stop11023" />
    </linearGradient>
    <filter
       inkscape:collect="always"
       style="color-interpolation-filters:sRGB"
       id="filter10948-2"
       x="-0.12145464"
       width="1.2429093"
       y="-0.12823026"
       height="1.2564605">
      <feGaussianBlur
         inkscape:collect="always"
         stdDeviation="0.50567392"
         id="feGaussianBlur10950-6" />
    </filter>
    <linearGradient
       inkscape:collect="always"
       xlink:href="#linearGradient11025"
       id="linearGradient11031"
       x1="53.104843"
       y1="105.74405"
       x2="78.430878"
       y2="105.74405"
       gradientUnits="userSpaceOnUse" />
    <filter
       inkscape:collect="always"
       style="color-interpolation-filters:sRGB"
       id="filter10968-7"
       x="-0.038399998"
       width="1.0768"
       y="-0.038400002"
       height="1.0768">
      <feGaussianBlur
         inkscape:collect="always"
         stdDeviation="0.37631548"
         id="feGaussianBlur10970-9" />
    </filter>
    <radialGradient
       inkscape:collect="always"
       xlink:href="#linearGradient9162"
       id="radialGradient9164"
       cx="89.98497"
       cy="76.069191"
       fx="89.98497"
       fy="76.069191"
       r="4.3879604"
       gradientTransform="matrix(1.2584181,0,0,1.2807282,-59.708188,-12.580459)"
       gradientUnits="userSpaceOnUse" />
    <linearGradient
       inkscape:collect="always"
       id="linearGradient9162">
      <stop
         style="stop-color:#00ffff;stop-opacity:1;"
         offset="0"
         id="stop9158" />
      <stop
         style="stop-color:#00ffff;stop-opacity:0;"
         offset="1"
         id="stop9160" />
    </linearGradient>
    <filter
       inkscape:collect="always"
       style="color-interpolation-filters:sRGB"
       id="filter10208"
       x="-0.37166563"
       width="1.7433312"
       y="-0.36519128"
       height="1.7303824">
      <feGaussianBlur
         inkscape:collect="always"
         stdDeviation="1.710247"
         id="feGaussianBlur10210" />
    </filter>
    <radialGradient
       inkscape:collect="always"
       xlink:href="#linearGradient8701"
       id="radialGradient8703"
       cx="139.17924"
       cy="182.40927"
       fx="139.17924"
       fy="182.40927"
       r="3.6732593"
       gradientTransform="matrix(1.3601479,0,0,1.2882783,-50.104848,-68.378783)"
       gradientUnits="userSpaceOnUse" />
    <linearGradient
       inkscape:collect="always"
       id="linearGradient8701">
      <stop
         style="stop-color:#ff5555;stop-opacity:1;"
         offset="0"
         id="stop8697" />
      <stop
         style="stop-color:#ff5555;stop-opacity:0;"
         offset="1"
         id="stop8699" />
    </linearGradient>
    <filter
       inkscape:collect="always"
       style="color-interpolation-filters:sRGB"
       id="filter10948"
       x="-0.12145464"
       width="1.2429093"
       y="-0.12823026"
       height="1.2564605">
      <feGaussianBlur
         inkscape:collect="always"
         stdDeviation="0.50567392"
         id="feGaussianBlur10950" />
    </filter>
    <linearGradient
       inkscape:collect="always"
       xlink:href="#linearGradient8693"
       id="linearGradient8695"
       x1="131.24298"
       y1="183.58466"
       x2="157.47217"
       y2="183.58466"
       gradientUnits="userSpaceOnUse"
       gradientTransform="translate(0.58723238,-15.227178)" />
    <linearGradient
       inkscape:collect="always"
       id="linearGradient8693">
      <stop
         style="stop-color:#ff0000;stop-opacity:1;"
         offset="0"
         id="stop8689" />
      <stop
         style="stop-color:#ff0000;stop-opacity:0;"
         offset="1"
         id="stop8691" />
    </linearGradient>
    <filter
       inkscape:collect="always"
       style="color-interpolation-filters:sRGB"
       id="filter11043"
       x="-0.029999999"
       width="1.0599999"
       y="-0.030000001"
       height="1.0599999">
      <feGaussianBlur
         inkscape:collect="always"
         stdDeviation="0.29399647"
         id="feGaussianBlur11045" />
    </filter>
    <linearGradient
       inkscape:collect="always"
       xlink:href="#linearGradient8827"
       id="linearGradient8829"
       x1="66.558258"
       y1="84.266495"
       x2="98.903595"
       y2="84.266495"
       gradientUnits="userSpaceOnUse"
       gradientTransform="translate(-22.469318,2.5377029)" />
    <linearGradient
       inkscape:collect="always"
       id="linearGradient8827">
      <stop
         style="stop-color:#0000ff;stop-opacity:1;"
         offset="0"
         id="stop8823" />
      <stop
         style="stop-color:#0000ff;stop-opacity:0;"
         offset="1"
         id="stop8825" />
    </linearGradient>
    <radialGradient
       inkscape:collect="always"
       xlink:href="#linearGradient6514"
       id="radialGradient6516"
       cx="45.703087"
       cy="73.295403"
       fx="45.703087"
       fy="73.295403"
       r="20.133968"
       gradientTransform="matrix(0.76053818,0,0,0.72176208,25.502662,33.902354)"
       gradientUnits="userSpaceOnUse" />
    <linearGradient
       inkscape:collect="always"
       id="linearGradient6514">
      <stop
         style="stop-color:#000000;stop-opacity:1;"
         offset="0"
         id="stop6510" />
      <stop
         style="stop-color:#000000;stop-opacity:0;"
         offset="1"
         id="stop6512" />
    </linearGradient>
    <filter
       inkscape:collect="always"
       style="color-interpolation-filters:sRGB"
       id="filter9027"
       x="-0.017506927"
       width="1.0350139"
       y="-0.018521652"
       height="1.0370433">
      <feGaussianBlur
         inkscape:collect="always"
         stdDeviation="0.2135166"
         id="feGaussianBlur9029" />
    </filter>
    <radialGradient
       inkscape:collect="always"
       xlink:href="#linearGradient9146"
       id="radialGradient9190"
       cx="150.53687"
       cy="53.402744"
       fx="150.53687"
       fy="53.402744"
       r="6.3056688"
       gradientTransform="matrix(1,0,0,0.99770217,0,0.1227105)"
       gradientUnits="userSpaceOnUse" />
    <linearGradient
       inkscape:collect="always"
       id="linearGradient9146">
      <stop
         style="stop-color:#00ff00;stop-opacity:1;"
         offset="0"
         id="stop9142" />
      <stop
         style="stop-color:#00ff00;stop-opacity:0;"
         offset="1"
         id="stop9144" />
    </linearGradient>
    <filter
       inkscape:collect="always"
       style="color-interpolation-filters:sRGB"
       id="filter9936"
       x="-0.099604033"
       width="1.1992081"
       y="-0.099878035"
       height="1.1997561">
      <feGaussianBlur
         inkscape:collect="always"
         stdDeviation="0.43839047"
         id="feGaussianBlur9938" />
    </filter>
    <linearGradient
       inkscape:collect="always"
       xlink:href="#linearGradient9146"
       id="linearGradient9148"
       x1="143.84637"
       y1="54.942822"
       x2="174.22508"
       y2="54.942822"
       gradientUnits="userSpaceOnUse"
       gradientTransform="translate(-19.067538,0.2698459)" />
    <filter
       inkscape:collect="always"
       style="color-interpolation-filters:sRGB"
       id="filter9944"
       x="-0.024486791"
       width="1.0489736"
       y="-0.025956001"
       height="1.051912">
      <feGaussianBlur
         inkscape:collect="always"
         stdDeviation="0.28905199"
         id="feGaussianBlur9946" />
    </filter>
    <radialGradient
       inkscape:collect="always"
       xlink:href="#linearGradient2584-3"
       id="radialGradient2586"
       cx="104.32749"
       cy="123.67625"
       fx="104.32749"
       fy="123.67625"
       r="93.360107"
       gradientTransform="matrix(6.2836168,6.4696722,-1.5707002,1.5255296,-356.96817,-739.99681)"
       gradientUnits="userSpaceOnUse" />
  </defs>
  <sodipodi:namedview
     id="base"
     pagecolor="#000000"
     bordercolor="#666666"
     borderopacity="1.0"
     inkscape:pageopacity="0"
     inkscape:pageshadow="2"
     inkscape:zoom="0.36794105"
     inkscape:cx="-110.61849"
     inkscape:cy="852.13755"
     inkscape:document-units="mm"
     inkscape:current-layer="layer1"
     showgrid="false"
     inkscape:object-nodes="true"
     inkscape:snap-smooth-nodes="false"
     inkscape:window-width="1366"
     inkscape:window-height="697"
     inkscape:window-x="0"
     inkscape:window-y="0"
     inkscape:window-maximized="1"
     inkscape:pagecheckerboard="true" />
  <metadata
     id="metadata5">
    <rdf:RDF>
      <cc:Work
         rdf:about="">
        <dc:format>image/svg+xml</dc:format>
        <dc:type
           rdf:resource="http://purl.org/dc/dcmitype/StillImage" />
        <dc:title></dc:title>
      </cc:Work>
    </rdf:RDF>
  </metadata>
  <g
     inkscape:label="Camada 1"
     inkscape:groupmode="layer"
     id="layer1">
    <ellipse
       id="path70"
       cx="103.56547"
       cy="117.6503"
       rx="93.360107"
       ry="92.793159"
       style="stroke-width:0.25479797;fill-opacity:1;fill:url(#radialGradient2586);fill-rule:nonzero;opacity:1"
       inkscape:export-xdpi="96"
       inkscape:export-ydpi="96" />
    <path
       style="fill:#ffffff;stroke-width:1.26499999;stroke-linecap:butt;stroke-linejoin:miter;stroke-miterlimit:4;stroke-dasharray:none;stroke-dashoffset:0"
       id="path4844"
       d="m 56.678832,169.95361 c 0.1609,-2.54248 0.1881,-5.09192 0.23512,-7.63846 0.0701,-5.37852 0.11486,-10.75687 0.1071,-16.13587 0.0645,-3.31752 -0.21907,-6.64755 0.0207,-9.96207 0.13116,-1.81297 0.33145,-2.78091 0.62525,-4.57626 0.82231,-4.04577 1.96562,-8.04164 3.73276,-11.78393 0.35856,-0.75929 0.7662,-1.49442 1.1493,-2.24164 2.24993,-4.38201 5.76117,-7.88275 9.31435,-11.21786 3.1775,-2.72279 6.34768,-5.45962 9.71214,-7.950508 0.50764,-0.36806 1.01306,-0.73915 1.52287,-1.10416 0.79166,-0.5668 2.18884,-1.55378 3.00586,-2.0808 2.53402,-1.63463 5.23054,-3.07813 7.84339,-4.56181 3.18661,-1.76907 6.385238,-3.51017 9.640608,-5.14911 3.42463,-1.69492 7.14433,-2.59398 10.83152,-3.50755 4.18011,-1.06636 8.34884,-2.18062 12.51471,-3.30211 0.66034,-0.17704 1.3173,-0.3672 1.98102,-0.53113 0.82451,-0.20365 3.33709,-0.74215 4.14194,-0.9232 2.06138,-0.46371 4.12028,-0.9372 6.1832,-1.39429 3.24629,-0.77874 6.53236,-1.37644 9.7831,-2.13404 0.42923,-0.0946 0.85839,-0.18949 1.28768,-0.28379 0.66722,-0.14658 1.64005,-0.35014 2.30972,-0.52871 1.00628,-0.26831 1.99332,-0.60648 2.99759,-0.88375 2.05911,-0.595015 4.11617,-1.19086 6.14495,-1.883777 1.38502,-0.464638 2.68279,-1.108332 3.95089,-1.823104 -5.71331,3.444214 -1.651,0.866654 -0.43781,-0.129571 1.22142,-0.988776 3.96505,-4.280526 4.69011,-1.960842 0.10669,0.772964 0.0812,1.555201 0.0659,2.332933 0.09,1.691767 -0.43921,3.267004 -1.00447,4.835671 -0.13077,0.34524 -0.25536,0.69288 -0.39231,1.03571 -0.42039,1.05237 -0.52618,1.16762 -0.89863,2.25773 -0.44363,1.29844 -0.79961,2.63516 -1.16989,3.9556 -0.48593,1.94661 -0.87985,3.91683 -1.3942,5.85649 -0.24898,0.93894 -0.53269,1.86832 -0.79436,2.8038 -0.83823,2.73146 -1.99862,5.34308 -3.01215,8.00972 -0.88339,2.23394 -1.48029,4.555868 -2.03267,6.888438 -0.42756,2.40417 -1.02004,4.76873 -1.61242,7.13573 -0.74045,2.50817 -1.42785,5.03229 -2.27196,7.5082 -0.54687,1.7389 -1.29216,3.40405 -1.95378,5.09956 -0.32346,0.82894 -0.62546,1.6661 -0.94679,2.49586 -1.00077,2.59927 -2.30598,5.06154 -3.61399,7.51486 -0.97129,1.96219 -1.97757,3.91823 -3.20555,5.73521 -0.8147,1.20548 -1.43506,1.97619 -2.3244,3.13446 -2.74289,3.50721 -5.55697,6.95182 -8.4993,10.29351 -2.7875,3.07962 -5.85328,5.93139 -9.13301,8.48358 -0.69755,0.54282 -1.41696,1.05694 -2.12544,1.58542 -4.45947,3.13915 -9.15266,5.93669 -13.96206,8.50337 -2.66582,1.446 -5.62861,2.01754 -8.59223,2.46874 -3.320118,0.45058 -6.633518,0.92023 -9.973258,1.20504 -2.9114,0.20921 -5.83071,0.23791 -8.74814,0.26306 -2.56892,0.0138 -5.13788,5.3e-4 -7.70683,0.004 -2.36253,0.004 -4.72506,0.002 -7.08759,0.003 -1.73536,0.003 -3.4705,0.0289 -5.20576,0.0439 -0.83385,-0.001 -1.66744,0.0208 -2.50114,0.0322 -0.54064,0.003 -1.08118,-0.006 -1.62196,-0.004 -0.45089,0.01 -0.90158,0.009 -1.35246,0.001 -0.50548,-0.006 -1.01094,0.005 -1.51643,0.005 0,0 3.1944,-2.32086 3.1944,-2.32086 v 0 c 0.50066,2e-4 1.00128,0.0111 1.50194,0.005 0.44978,-0.007 0.89938,-0.009 1.34916,0.001 0.54401,0.002 1.08781,-0.006 1.63167,-0.004 0.80421,0.0114 1.6083,0.0336 2.41267,0.0321 1.69481,0.015 3.38951,0.0411 5.08442,0.0443 2.35629,10e-4 4.71258,0.002 7.06885,0.0112 2.56133,0.01 5.12266,0.01 7.684,0.01 2.89278,-0.008 5.78815,-0.0337 8.67465,-0.24376 3.3424,-0.27304 6.656198,-0.74264 9.971928,-1.2382 2.91605,-0.4972 5.83557,-1.0681 8.45816,-2.51274 0.52465,-0.2808 0.99472,-0.70609 1.57397,-0.84239 0.48897,-0.11505 -1.72736,1.0263 -1.29184,0.776 2.71524,-1.5604 5.34547,-3.27138 7.92685,-5.04228 0.71111,-0.52447 1.43444,-1.03279 2.13336,-1.57341 2.0091,-1.55407 3.89903,-3.24755 5.74158,-4.99344 0.58758,-0.55675 1.18267,-1.10634 1.74801,-1.68566 0.54157,-0.55498 1.04742,-1.14375 1.57114,-1.71561 2.93592,-3.30754 5.71114,-6.74208 8.42289,-10.23528 0.85757,-1.11902 1.49697,-1.91669 2.28153,-3.08187 1.20857,-1.79484 2.21068,-3.72723 3.14183,-5.67661 1.28513,-2.44336 2.58649,-4.88301 3.59202,-7.45967 0.65504,-1.6545 0.33431,-0.81851 0.96148,-2.50824 0.65747,-1.68895 1.40043,-3.34673 1.95021,-5.07645 0.86288,-2.45138 1.50619,-4.9658 2.24074,-7.4574 0.58941,-2.37187 1.23901,-4.73027 1.64598,-7.14353 0.51579,-2.3599 1.08922,-4.70517 2.02411,-6.941508 1.02749,-2.66067 2.20014,-5.26516 3.05217,-7.99197 0.26486,-0.93517 0.55587,-1.86292 0.81302,-2.80024 0.53117,-1.93619 0.9146,-3.90851 1.3833,-5.8597 0.34454,-1.32181 0.68395,-2.65572 1.09996,-3.95749 0.39302,-1.22984 0.39818,-1.07551 0.86041,-2.24374 0.13454,-0.34002 0.257,-0.68468 0.38549,-1.02702 0.54523,-1.50148 1.05585,-3.023544 0.90599,-4.643696 -0.006,-0.734595 0.0178,-1.474132 -0.0704,-2.204596 -0.35033,-1.437243 -1.57118,0.691951 3.25059,-2.075751 0.0769,-0.04416 -0.16944,0.05968 -0.24197,0.110749 -0.24424,0.17195 -0.4136,0.437441 -0.6685,0.596738 -1.85595,1.590638 -4.00775,2.771347 -6.12115,3.985019 -1.24827,0.684808 -2.54767,1.25743 -3.90418,1.696727 -2.03058,0.66322 -4.07991,1.26461 -6.13318,1.85337 -2.15795,0.63145 -4.31737,1.23702 -6.53622,1.62572 -3.21066,0.69798 -6.44326,1.29161 -9.64594,2.0269 -4.10986,0.88548 -8.22257,1.77988 -12.28736,2.85411 -4.15808,1.10319 -8.31526,2.21147 -12.48416,3.27268 -3.71144,0.95262 -7.44324,1.92399 -10.88812,3.64794 -3.241228,1.63318 -6.422338,3.37659 -9.598668,5.13236 0.43608,-0.26514 1.76251,-1.02806 1.30825,-0.79542 -0.56045,0.28703 -1.0864,0.63698 -1.62755,0.95893 -2.13035,1.26744 -4.16506,2.67587 -6.1649,4.14031 -3.39548,2.48772 -6.5783,5.242898 -9.80273,7.945558 -3.58611,3.29461 -7.10465,6.78557 -9.40563,11.13244 -0.38709,0.7411 -0.79912,1.4697 -1.16129,2.2233 -1.77935,3.70242 -2.90396,7.66896 -3.71545,11.6841 -0.26652,1.62279 -0.51031,2.90134 -0.64582,4.54111 -0.27529,3.33134 -0.0479,6.68694 -0.17109,10.02321 -0.008,5.34262 0.0364,10.6846 0.10709,16.02673 0.0464,2.46663 0.0709,4.93662 0.23512,7.39886 0,0 -3.5236,1.79536 -3.5236,1.79536 z"
       inkscape:connector-curvature="0" />
    <path
       style="fill:#ffffff;stroke-width:1.26499999;stroke-linecap:butt;stroke-linejoin:miter;stroke-miterlimit:4;stroke-dasharray:none;stroke-dashoffset:0"
       id="path4846"
       d="m 43.887562,186.20763 c 0.8229,-0.89859 1.6695,-1.77454 2.47726,-2.68764 1.70922,-1.73064 3.18639,-3.66673 4.78232,-5.49916 1.38611,-1.55271 2.68993,-3.17318 3.97918,-4.80618 1.0957,-1.34898 2.09139,-2.77313 3.1773,-4.12962 1.44306,-1.74933 3.00226,-3.40421 4.57444,-5.03822 1.59222,-1.70144 3.56871,-2.94833 5.39851,-4.36531 2.29211,-1.76115 4.49596,-3.63821 6.64514,-5.57063 2.0612,-1.93892 3.96641,-4.03321 5.76422,-6.21613 0.35258,-0.4189 0.70445,-0.83842 1.05775,-1.25672 0.74765,-0.88519 1.51747,-1.81148 2.31402,-2.65257 1.40856,-1.48731 2.94826,-2.8483 4.44976,-4.23925 2.15877,-2.17 4.29459,-4.37562 6.26781,-6.71828 0.51381,-0.61 2.42521,-3.02931 2.91347,-3.64489 2.330448,-2.94058 4.202038,-6.26097 6.804438,-8.98666 0.49145,-0.51474 1.03655,-0.97545 1.55483,-1.46315 2.72421,-2.61633 5.68894,-4.95712 8.70201,-7.22746 0.40568,-0.29262 0.80795,-0.59003 1.21706,-0.87787 0.39697,-0.27933 0.80659,-0.54055 1.201,-0.8235 1.44408,-1.03602 2.81446,-2.17367 4.16633,-3.3254 1.95332,-1.73358 3.5826,-3.79352 5.21408,-5.82302 1.62361,-2.018088 3.52574,-3.785188 5.39986,-5.564908 1.24542,-1.17666 2.55401,-2.28961 3.70381,-3.56257 0.12355,-0.15091 0.24708,-0.30182 0.37063,-0.45273 0,0 3.53146,-1.50331 3.53146,-1.50331 v 0 c -0.13148,0.15945 -0.26297,0.3189 -0.39443,0.47835 -1.15213,1.3236 -2.50429,2.44352 -3.78796,3.63521 -1.91287,1.76919 -3.85067,3.53108 -5.50552,5.55093 -1.60682,2.050898 -3.23262,4.119108 -5.16328,5.877248 -1.35835,1.16728 -2.7325,2.3327 -4.18916,3.37752 -0.39794,0.28541 -0.81496,0.5433 -1.21796,0.82151 -0.41991,0.28988 -0.83375,0.58844 -1.25061,0.88266 -3.06426,2.27263 -6.0877,4.60419 -8.8472,7.24697 -0.52552,0.4772 -1.07934,0.92495 -1.57655,1.43158 -2.65074,2.70087 -4.5382,6.03119 -6.85943,8.99359 -0.41138,0.52115 -2.476468,3.14473 -2.906138,3.65979 -1.95329,2.34143 -4.07933,4.53531 -6.19688,6.72623 -1.47143,1.37487 -2.99401,2.71098 -4.37881,4.17526 -0.75293,0.79614 -1.5665,1.78016 -2.27181,2.62253 -0.3457,0.41287 -0.68947,0.82733 -1.03418,1.241 -1.76489,2.20064 -3.65549,4.29838 -5.69655,6.24795 -2.14004,1.93949 -4.36048,3.79504 -6.6237,5.5885 -1.78494,1.4265 -3.75173,2.63351 -5.3443,4.29068 -1.58884,1.61314 -3.15826,3.25733 -4.59488,5.00737 -1.06968,1.34177 -2.02016,2.77023 -3.10423,4.09946 -1.34458,1.64663 -2.69958,3.28432 -4.10737,4.87758 -0.28856,0.3284 -1.43215,1.62488 -1.70787,1.95893 -0.97301,1.17886 -1.84794,2.45019 -2.97434,3.49462 -0.73842,0.88318 -1.50106,1.7483 -2.29345,2.58106 0,0 -3.64008,1.56865 -3.64008,1.56865 z"
       inkscape:connector-curvature="0" />
    <path
       style="fill:#ffffff;stroke-width:1.26499999;stroke-linecap:butt;stroke-linejoin:miter;stroke-miterlimit:4;stroke-dasharray:none;stroke-dashoffset:0"
       id="path4848"
       d="m 107.48687,121.24756 c 1.37786,-0.0481 2.69852,-0.51891 4.01168,-0.89984 2.03331,-0.47837 4.09225,-0.83741 6.13564,-1.26911 1.70514,-0.4187 3.45149,-0.53853 5.19839,-0.61572 0.82253,-0.0492 1.64935,0.0187 2.46615,-0.11956 0.71747,-0.12139 1.423,-0.37036 2.1072,-0.60915 0.20333,-0.0807 1.07184,-0.41856 1.28918,-0.53082 0.1677,-0.0866 0.6445,-0.39293 0.47952,-0.30122 -5.10589,2.83784 -3.30359,2.26118 -2.4696,1.17661 0.14215,-0.21377 0.25441,-0.44274 0.35637,-0.67741 0,0 3.58254,-1.651 3.58254,-1.651 v 0 c -0.10315,0.25841 -0.20035,0.52071 -0.35846,0.75241 -0.8416,1.5809 -2.2607,1.74599 -4.10565,2.8207 -0.55689,0.32441 -1.1776,0.51012 -1.77468,0.74195 -0.7045,0.22392 -1.40589,0.43456 -2.14308,0.52514 -0.61241,0.0752 -1.02258,0.0601 -1.63745,0.0752 -0.27659,0.007 -0.55309,0.0169 -0.82965,0.0254 -1.72463,0.0817 -3.44235,0.25375 -5.12923,0.63809 -2.05104,0.41501 -4.11847,0.76327 -6.14023,1.31027 -1.38253,0.40581 -2.76709,0.80417 -4.19802,1.00016 0,0 3.15938,-2.3921 3.15938,-2.3921 z"
       inkscape:connector-curvature="0" />
    <path
       style="fill:#ffffff;stroke-width:1.26499999;stroke-linecap:butt;stroke-linejoin:miter;stroke-miterlimit:4;stroke-dasharray:none;stroke-dashoffset:0"
       id="path4860"
       d="m 84.492772,148.55622 c 0.54074,-1.04055 1.67676,-1.57487 2.63084,-2.17533 2.49288,-1.51028 4.96901,-3.11931 7.77745,-3.96023 1.54716,-0.40889 3.1489,-0.44488 4.73836,-0.47471 1.689238,-0.10298 3.383268,-0.13744 5.070018,-0.27595 1.52097,-0.13543 3.04778,-0.19105 4.5733,-0.24865 0.76819,-0.0836 1.58453,0.0843 2.31437,-0.20869 0.0856,-0.0326 0.17689,-0.053 0.2567,-0.0979 0.0846,-0.0476 0.1477,-0.12781 0.23152,-0.17683 0.10147,-0.0593 0.42231,-0.20553 0.32086,-0.14618 -5.42844,3.17647 -3.41051,2.13813 -2.40262,1.24988 0.0782,-0.079 0.15648,-0.15806 0.23472,-0.23709 0,0 3.61456,-1.49876 3.61456,-1.49876 v 0 c -0.0808,0.0812 -0.16159,0.16235 -0.24238,0.24352 -1.34045,1.48468 -3.28532,2.33873 -5.12741,3.05843 -0.75423,0.13088 -1.52437,0.0272 -2.28582,0.0693 -1.51647,0.032 -3.03103,0.10626 -4.54175,0.24587 -1.685038,0.10711 -3.374608,0.13715 -5.059808,0.24632 -1.57643,0.0508 -3.1668,0.11621 -4.68916,0.57134 -0.74827,0.25265 -1.47814,0.52873 -2.1915,0.87051 -0.26227,0.12565 -1.02409,0.5502 -0.77693,0.39695 0.55586,-0.34463 3.92284,-2.2947 1.69503,-0.98829 -2.13033,1.31961 0.56614,-0.36434 -1.34108,0.86681 -0.43151,0.27854 -0.98194,0.52922 -1.18362,1.03382 0,0 -3.61565,1.63583 -3.61565,1.63583 z"
       inkscape:connector-curvature="0" />
    <path
       style="fill:#ffffff;stroke-width:1.26499999;stroke-linecap:butt;stroke-linejoin:miter;stroke-miterlimit:4;stroke-dasharray:none;stroke-dashoffset:0"
       id="path4848-3"
       d="m 92.972702,129.80224 c 0.37156,-1.32769 0.32293,-2.72893 0.35769,-4.09578 0.16005,-2.08268 0.44159,-4.15364 0.64918,-6.2318 0.11749,-1.75184 0.53231,-3.45245 0.98794,-5.14066 0.20228,-0.79877 0.51746,-1.56618 0.63312,-2.38649 0.10165,-0.72055 0.0781,-1.46835 0.0578,-2.19271 -0.0153,-0.21824 -0.0742,-1.14827 -0.11536,-1.38942 -0.0318,-0.18605 -0.17921,-0.73324 -0.1418,-0.54823 1.15779,5.72562 1.15419,3.83334 0.37322,2.71 -0.16067,-0.20023 -0.34487,-0.37659 -0.53763,-0.54484 0,0 -0.48818,-3.91435 -0.48818,-3.91435 v 0 c 0.21503,0.1766 0.43556,0.34868 0.60847,0.56954 1.25168,1.28096 0.97912,2.6834 1.44446,4.76722 0.14047,0.62897 0.12943,1.2768 0.16949,1.91605 -1e-5,0.73923 -0.0117,1.47147 -0.14873,2.20147 -0.11384,0.60641 -0.25249,0.99273 -0.42436,1.58329 -0.0771,0.26572 -0.15144,0.53222 -0.22711,0.79836 -0.44458,1.66834 -0.80096,3.35748 -0.94568,5.08153 -0.22579,2.08037 -0.52018,4.15617 -0.61133,6.24864 -0.0321,1.4405 -0.0718,2.88065 -0.31852,4.30372 0,0 -1.32265,-3.73554 -1.32265,-3.73554 z"
       inkscape:connector-curvature="0" />
    <ellipse
       style="fill:url(#linearGradient9148);fill-opacity:1;stroke-width:1.33008516;stroke-linecap:butt;stroke-linejoin:miter;stroke-miterlimit:4;stroke-dasharray:none;stroke-dashoffset:0;filter:url(#filter9944)"
       id="path4917"
       cx="139.96817"
       cy="55.212669"
       rx="14.165285"
       ry="13.363476" />
    <ellipse
       style="fill:url(#radialGradient9190);fill-opacity:1;stroke-width:2.3802011;stroke-linecap:butt;stroke-linejoin:miter;stroke-miterlimit:4;stroke-dasharray:none;stroke-dashoffset:0;filter:url(#filter9936)"
       id="path4919"
       cx="150.53687"
       cy="53.402744"
       rx="5.281599"
       ry="5.2671099"
       transform="matrix(0.73629832,0,0,0.6638113,21.196262,18.034256)" />
    <ellipse
       style="fill:url(#linearGradient8829);fill-opacity:1;stroke:url(#radialGradient6516);stroke-width:1.37554598;stroke-linecap:butt;stroke-linejoin:miter;stroke-miterlimit:4;stroke-dasharray:none;stroke-dashoffset:0;stroke-opacity:1;filter:url(#filter9027)"
       id="path4917-6"
       cx="60.261612"
       cy="86.804199"
       rx="14.635345"
       ry="13.833535" />
    <ellipse
       style="opacity:1;fill:url(#linearGradient8695);fill-opacity:1;stroke:none;stroke-width:1.13686585;stroke-linecap:butt;stroke-linejoin:miter;stroke-miterlimit:4;stroke-dasharray:none;stroke-dashoffset:0;stroke-opacity:1;filter:url(#filter11043)"
       id="path4917-5"
       cx="144.94479"
       cy="168.35747"
       rx="11.759859"
       ry="11.759858" />
    <ellipse
       style="fill:url(#radialGradient8703);fill-opacity:1;stroke-width:2.19429088;stroke-linecap:butt;stroke-linejoin:miter;stroke-miterlimit:4;stroke-dasharray:none;stroke-dashoffset:0;filter:url(#filter10948)"
       id="path4919-9"
       cx="139.19952"
       cy="166.61513"
       rx="4.9961758"
       ry="4.7321801" />
    <ellipse
       style="fill:url(#radialGradient9164);fill-opacity:1;stroke-width:2.51390243;stroke-linecap:butt;stroke-linejoin:miter;stroke-miterlimit:4;stroke-dasharray:none;stroke-dashoffset:0;filter:url(#filter10208)"
       id="path4919-9-0"
       cx="53.530533"
       cy="84.843506"
       rx="5.5218892"
       ry="5.6197848" />
    <ellipse
       style="opacity:1;fill:url(#linearGradient11031);fill-opacity:1;stroke:none;stroke-width:1.13686585;stroke-linecap:butt;stroke-linejoin:miter;stroke-miterlimit:4;stroke-dasharray:none;stroke-dashoffset:0;stroke-opacity:1;filter:url(#filter10968-7)"
       id="path4917-5-2"
       cx="65.76786"
       cy="105.74405"
       rx="11.759859"
       ry="11.759858"
       transform="matrix(0.44896416,0,0,0.41682289,36.638692,17.147176)" />
    <ellipse
       style="fill:url(#linearGradient11033);fill-opacity:1;stroke-width:2.19429088;stroke-linecap:butt;stroke-linejoin:miter;stroke-miterlimit:4;stroke-dasharray:none;stroke-dashoffset:0;filter:url(#filter10948-2)"
       id="path4919-9-02"
       cx="60.022572"
       cy="104.00171"
       rx="4.9961758"
       ry="4.7321801"
       transform="matrix(0.44896416,0,0,0.41682289,36.638692,17.147176)" />
  </g>
</svg>
