<?xml version="1.0" encoding="UTF-8" standalone="no"?>
<!-- Created with Inkscape (http://www.inkscape.org/) -->

<svg
   xmlns:osb="http://www.openswatchbook.org/uri/2009/osb"
   xmlns:dc="http://purl.org/dc/elements/1.1/"
   xmlns:cc="http://creativecommons.org/ns#"
   xmlns:rdf="http://www.w3.org/1999/02/22-rdf-syntax-ns#"
   xmlns:svg="http://www.w3.org/2000/svg"
   xmlns="http://www.w3.org/2000/svg"
   xmlns:sodipodi="http://sodipodi.sourceforge.net/DTD/sodipodi-0.dtd"
   xmlns:inkscape="http://www.inkscape.org/namespaces/inkscape"
   width="210mm"
   height="297mm"
   viewBox="0 0 210 297"
   version="1.1"
   id="svg8"
   sodipodi:docname="SciChain-prevlogo.svg"
   inkscape:version="0.92.2pre0 (973e216, 2017-07-25)">
  <defs
     id="defs2">
    <linearGradient
       id="linearGradient5058"
       osb:paint="solid">
      <stop
         style="stop-color:#000000;stop-opacity:1;"
         offset="0"
         id="stop5056" />
    </linearGradient>
    <marker
       inkscape:stockid="Arrow1Lstart"
       orient="auto"
       refY="0.0"
       refX="0.0"
       id="Arrow1Lstart"
       style="overflow:visible"
       inkscape:isstock="true">
      <path
         id="path4518"
         d="M 0.0,0.0 L 5.0,-5.0 L -12.5,0.0 L 5.0,5.0 L 0.0,0.0 z "
         style="fill-rule:evenodd;stroke:#000000;stroke-width:1pt;stroke-opacity:1;fill:#000000;fill-opacity:1"
         transform="scale(0.8) translate(12.5,0)" />
    </marker>
    <meshgradient
       inkscape:collect="always"
       id="meshgradient2405"
       gradientUnits="userSpaceOnUse"
       x="-183.66586"
       y="37.950796">
      <meshrow
         id="meshrow2407">
        <meshpatch
           id="meshpatch2409">
          <stop
             path="c 36.4594,-36.238  95.5717,-36.238  132.031,0"
             style="stop-color:#ffffff;stop-opacity:1"
             id="stop2411" />
          <stop
             path="c 36.4594,36.238  36.4594,94.9914  0,131.229"
             style="stop-color:#008000;stop-opacity:1"
             id="stop2413" />
          <stop
             path="c -36.4594,36.238  -95.5717,36.238  -132.031,2.84217e-14"
             style="stop-color:#ffffff;stop-opacity:1"
             id="stop2415" />
          <stop
             path="c -36.4594,-36.238  -36.4594,-94.9914  -2.84217e-14,-131.229"
             style="stop-color:#008000;stop-opacity:1"
             id="stop2417" />
        </meshpatch>
      </meshrow>
    </meshgradient>
  </defs>
  <sodipodi:namedview
     id="base"
     pagecolor="#000000"
     bordercolor="#666666"
     borderopacity="1.0"
     inkscape:pageopacity="0"
     inkscape:pageshadow="2"
     inkscape:zoom="1.048254"
     inkscape:cx="396.85039"
     inkscape:cy="701.41603"
     inkscape:document-units="mm"
     inkscape:current-layer="layer1"
     showgrid="false"
     inkscape:object-nodes="true"
     inkscape:snap-smooth-nodes="false"
     inkscape:window-width="1366"
     inkscape:window-height="697"
     inkscape:window-x="0"
     inkscape:window-y="0"
     inkscape:window-maximized="1"
     inkscape:pagecheckerboard="true" />
  <metadata
     id="metadata5">
    <rdf:RDF>
      <cc:Work
         rdf:about="">
        <dc:format>image/svg+xml</dc:format>
        <dc:type
           rdf:resource="http://purl.org/dc/dcmitype/StillImage" />
        <dc:title></dc:title>
      </cc:Work>
    </rdf:RDF>
  </metadata>
  <g
     inkscape:label="Camada 1"
     inkscape:groupmode="layer"
     id="layer1">
    <ellipse
       id="path70"
       cx="-117.6503"
       cy="103.56547"
       rx="93.360107"
       ry="92.793159"
       style="opacity:1;fill:url(#meshgradient2405);fill-opacity:1;fill-rule:nonzero;stroke-width:0.25479797"
       inkscape:export-xdpi="96"
       inkscape:export-ydpi="96"
       transform="rotate(-90)" />
    <g
       id="g911"
       transform="translate(-14.381833,5.7527331)">
      <path
         inkscape:connector-curvature="0"
         d="m 155.86878,164.53694 c -2.54248,-0.1609 -5.09192,-0.1881 -7.63846,-0.23512 -5.37852,-0.0701 -10.75687,-0.11486 -16.13587,-0.1071 -3.31752,-0.0645 -6.64755,0.21907 -9.96207,-0.0207 -1.81297,-0.13116 -2.78091,-0.33145 -4.57626,-0.62525 -4.04577,-0.82231 -8.04164,-1.96562 -11.78393,-3.73276 -0.75929,-0.35856 -1.49442,-0.7662 -2.24164,-1.1493 -4.38201,-2.24993 -7.88275,-5.76117 -11.21786,-9.31435 -2.72279,-3.1775 -5.45962,-6.34768 -7.950508,-9.71214 -0.36806,-0.50764 -0.73915,-1.01306 -1.10416,-1.52287 -0.5668,-0.79166 -1.55378,-2.18884 -2.0808,-3.00586 -1.63463,-2.53402 -3.07813,-5.23054 -4.56181,-7.84339 -1.76907,-3.18661 -3.51017,-6.38524 -5.14911,-9.64061 -1.69492,-3.42463 -2.59398,-7.14433 -3.50755,-10.83152 -1.06636,-4.18011 -2.18062,-8.34884 -3.30211,-12.51471 -0.17704,-0.66034 -0.3672,-1.3173 -0.53113,-1.98102 -0.20365,-0.82451 -0.74215,-3.33709 -0.9232,-4.14194 -0.46371,-2.06138 -0.9372,-4.12028 -1.39429,-6.1832 -0.77874,-3.24629 -1.37644,-6.53236 -2.13404,-9.7831 -0.0946,-0.42923 -0.18949,-0.85839 -0.28379,-1.28768 -0.14658,-0.66722 -0.35014,-1.64005 -0.52871,-2.30972 -0.26831,-1.00628 -0.60648,-1.99332 -0.88375,-2.99759 -0.595015,-2.05911 -1.19086,-4.11617 -1.883777,-6.14495 -0.464638,-1.38502 -1.108332,-2.68279 -1.823104,-3.95089 3.444214,5.71331 0.866654,1.651 -0.129571,0.43781 -0.988776,-1.22142 -4.280526,-3.96505 -1.960842,-4.69011 0.772964,-0.10669 1.555201,-0.0812 2.332933,-0.0659 1.691767,-0.09 3.267004,0.43921 4.835671,1.00447 0.34524,0.13077 0.69288,0.25536 1.03571,0.39231 1.05237,0.42039 1.16762,0.52618 2.25773,0.89863 1.29844,0.44363 2.63516,0.79961 3.9556,1.16989 1.94661,0.48593 3.91683,0.87985 5.85649,1.3942 0.93894,0.24898 1.86832,0.53269 2.8038,0.79436 2.73146,0.83823 5.34308,1.99862 8.00972,3.01215 2.23394,0.88339 4.555868,1.48029 6.888438,2.03267 2.40417,0.42756 4.76873,1.02004 7.13573,1.61242 2.50817,0.74045 5.03229,1.42785 7.5082,2.27196 1.7389,0.54687 3.40405,1.29216 5.09956,1.95378 0.82894,0.32346 1.6661,0.62546 2.49586,0.94679 2.59927,1.00077 5.06154,2.30598 7.51486,3.61399 1.96219,0.97129 3.91823,1.97757 5.73521,3.20555 1.20548,0.8147 1.97619,1.43506 3.13446,2.3244 3.50721,2.74289 6.95182,5.55697 10.29351,8.4993 3.07962,2.7875 5.93139,5.85328 8.48358,9.13301 0.54282,0.69755 1.05694,1.41696 1.58542,2.12544 3.13915,4.45947 5.93669,9.15266 8.50337,13.96206 1.446,2.66582 2.01754,5.62861 2.46874,8.59223 0.45058,3.32012 0.92023,6.63352 1.20504,9.97326 0.20921,2.9114 0.23791,5.83071 0.26306,8.74814 0.0138,2.56892 5.3e-4,5.13788 0.004,7.70683 0.004,2.36253 0.002,4.72506 0.003,7.08759 0.003,1.73536 0.0289,3.4705 0.0439,5.20576 -0.001,0.83385 0.0208,1.66744 0.0322,2.50114 0.003,0.54064 -0.006,1.08118 -0.004,1.62196 0.01,0.45089 0.009,0.90158 0.001,1.35246 -0.006,0.50548 0.005,1.01094 0.005,1.51643 0,0 -2.32086,-3.1944 -2.32086,-3.1944 v 0 c 2e-4,-0.50066 0.0111,-1.00128 0.005,-1.50194 -0.007,-0.44978 -0.009,-0.89938 0.001,-1.34916 0.002,-0.54401 -0.006,-1.08781 -0.004,-1.63167 0.0114,-0.80421 0.0336,-1.6083 0.0321,-2.41267 0.015,-1.69481 0.0411,-3.38951 0.0443,-5.08442 0.001,-2.35629 0.002,-4.71258 0.0112,-7.06885 0.01,-2.56133 0.01,-5.12266 0.01,-7.684 -0.008,-2.89278 -0.0337,-5.78815 -0.24376,-8.67465 -0.27304,-3.3424 -0.74264,-6.6562 -1.2382,-9.97193 -0.4972,-2.91605 -1.0681,-5.83557 -2.51274,-8.45816 -0.2808,-0.52465 -0.70609,-0.99472 -0.84239,-1.57397 -0.11505,-0.48897 1.0263,1.72736 0.776,1.29184 -1.5604,-2.71524 -3.27138,-5.34547 -5.04228,-7.92685 -0.52447,-0.71111 -1.03279,-1.43444 -1.57341,-2.13336 -1.55407,-2.0091 -3.24755,-3.89903 -4.99344,-5.74158 -0.55675,-0.58758 -1.10634,-1.18267 -1.68566,-1.74801 -0.55498,-0.54157 -1.14375,-1.04742 -1.71561,-1.57114 -3.30754,-2.93592 -6.74208,-5.71114 -10.23528,-8.42289 -1.11902,-0.85757 -1.91669,-1.49697 -3.08187,-2.28153 -1.79484,-1.20857 -3.72723,-2.21068 -5.67661,-3.14183 -2.44336,-1.28513 -4.88301,-2.58649 -7.45967,-3.59202 -1.6545,-0.65504 -0.81851,-0.33431 -2.50824,-0.96148 -1.68895,-0.65747 -3.34673,-1.40043 -5.07645,-1.95021 -2.45138,-0.86288 -4.9658,-1.50619 -7.4574,-2.24074 -2.37187,-0.58941 -4.73027,-1.23901 -7.14353,-1.64598 -2.3599,-0.51579 -4.70517,-1.08922 -6.941508,-2.02411 -2.66067,-1.02749 -5.26516,-2.20014 -7.99197,-3.05217 -0.93517,-0.26486 -1.86292,-0.55587 -2.80024,-0.81302 -1.93619,-0.53117 -3.90851,-0.9146 -5.8597,-1.3833 -1.32181,-0.34454 -2.65572,-0.68395 -3.95749,-1.09996 -1.22984,-0.39302 -1.07551,-0.39818 -2.24374,-0.86041 -0.34002,-0.13454 -0.68468,-0.257 -1.02702,-0.38549 -1.50148,-0.54523 -3.023544,-1.05585 -4.643696,-0.90599 -0.734595,0.006 -1.474132,-0.0178 -2.204596,0.0704 -1.437243,0.35033 0.691951,1.57118 -2.075751,-3.25059 -0.04416,-0.0769 0.05968,0.16944 0.110749,0.24197 0.17195,0.24424 0.437441,0.4136 0.596738,0.6685 1.590638,1.85595 2.771347,4.00775 3.985019,6.12115 0.684808,1.24827 1.25743,2.54767 1.696727,3.90418 0.66322,2.03058 1.26461,4.07991 1.85337,6.13318 0.63145,2.15795 1.23702,4.31737 1.62572,6.53622 0.69798,3.21066 1.29161,6.44326 2.0269,9.64594 0.88548,4.10986 1.77988,8.22257 2.85411,12.28736 1.10319,4.15808 2.21147,8.31526 3.27268,12.48416 0.95262,3.71144 1.92399,7.44324 3.64794,10.88812 1.63318,3.24123 3.37659,6.42234 5.13236,9.59867 -0.26514,-0.43608 -1.02806,-1.76251 -0.79542,-1.30825 0.28703,0.56045 0.63698,1.0864 0.95893,1.62755 1.26744,2.13035 2.67587,4.16506 4.14031,6.1649 2.48772,3.39548 5.242898,6.5783 7.945558,9.80273 3.29461,3.58611 6.78557,7.10465 11.13244,9.40563 0.7411,0.38709 1.4697,0.79912 2.2233,1.16129 3.70242,1.77935 7.66896,2.90396 11.6841,3.71545 1.62279,0.26652 2.90134,0.51031 4.54111,0.64582 3.33134,0.27529 6.68694,0.0479 10.02321,0.17109 5.34262,0.008 10.6846,-0.0364 16.02673,-0.10709 2.46663,-0.0464 4.93662,-0.0709 7.39886,-0.23512 0,0 1.79536,3.5236 1.79536,3.5236 z"
         id="path4844"
         style="fill:#ffffff;stroke-width:1.26499999;stroke-linecap:butt;stroke-linejoin:miter;stroke-miterlimit:4;stroke-dasharray:none;stroke-dashoffset:0" />
      <path
         inkscape:connector-curvature="0"
         d="m 172.1228,177.32821 c -0.89859,-0.8229 -1.77454,-1.6695 -2.68764,-2.47726 -1.73064,-1.70922 -3.66673,-3.18639 -5.49916,-4.78232 -1.55271,-1.38611 -3.17318,-2.68993 -4.80618,-3.97918 -1.34898,-1.0957 -2.77313,-2.09139 -4.12962,-3.1773 -1.74933,-1.44306 -3.40421,-3.00226 -5.03822,-4.57444 -1.70144,-1.59222 -2.94833,-3.56871 -4.36531,-5.39851 -1.76115,-2.29211 -3.63821,-4.49596 -5.57063,-6.64514 -1.93892,-2.0612 -4.03321,-3.96641 -6.21613,-5.76422 -0.4189,-0.35258 -0.83842,-0.70445 -1.25672,-1.05775 -0.88519,-0.74765 -1.81148,-1.51747 -2.65257,-2.31402 -1.48731,-1.40856 -2.8483,-2.94826 -4.23925,-4.44976 -2.17,-2.15877 -4.37562,-4.29459 -6.71828,-6.26781 -0.61,-0.51381 -3.02931,-2.42521 -3.64489,-2.91347 -2.94058,-2.33045 -6.26097,-4.20204 -8.98666,-6.80444 -0.51474,-0.49145 -0.97545,-1.03655 -1.46315,-1.55483 -2.61633,-2.72421 -4.95712,-5.68894 -7.22746,-8.70201 -0.29262,-0.40568 -0.59003,-0.80795 -0.87787,-1.21706 -0.27933,-0.39697 -0.54055,-0.80659 -0.8235,-1.201 -1.03602,-1.44408 -2.17367,-2.81446 -3.3254,-4.16633 -1.73358,-1.95332 -3.79352,-3.5826 -5.82302,-5.21408 -2.018088,-1.62361 -3.785188,-3.52574 -5.564908,-5.39986 -1.17666,-1.24542 -2.28961,-2.55401 -3.56257,-3.70381 -0.15091,-0.12355 -0.30182,-0.24708 -0.45273,-0.37063 0,0 -1.50331,-3.53146 -1.50331,-3.53146 v 0 c 0.15945,0.13148 0.3189,0.26297 0.47835,0.39443 1.3236,1.15213 2.44352,2.50429 3.63521,3.78796 1.76919,1.91287 3.53108,3.85067 5.55093,5.50552 2.050898,1.60682 4.119108,3.23262 5.877248,5.16328 1.16728,1.35835 2.3327,2.7325 3.37752,4.18916 0.28541,0.39794 0.5433,0.81496 0.82151,1.21796 0.28988,0.41991 0.58844,0.83375 0.88266,1.25061 2.27263,3.06426 4.60419,6.0877 7.24697,8.8472 0.4772,0.52552 0.92495,1.07934 1.43158,1.57655 2.70087,2.65074 6.03119,4.5382 8.99359,6.85943 0.52115,0.41138 3.14473,2.47647 3.65979,2.90614 2.34143,1.95329 4.53531,4.07933 6.72623,6.19688 1.37487,1.47143 2.71098,2.99401 4.17526,4.37881 0.79614,0.75293 1.78016,1.5665 2.62253,2.27181 0.41287,0.3457 0.82733,0.68947 1.241,1.03418 2.20064,1.76489 4.29838,3.65549 6.24795,5.69655 1.93949,2.14004 3.79504,4.36048 5.5885,6.6237 1.4265,1.78494 2.63351,3.75173 4.29068,5.3443 1.61314,1.58884 3.25733,3.15826 5.00737,4.59488 1.34177,1.06968 2.77023,2.02016 4.09946,3.10423 1.64663,1.34458 3.28432,2.69958 4.87758,4.10737 0.3284,0.28856 1.62488,1.43215 1.95893,1.70787 1.17886,0.97301 2.45019,1.84794 3.49462,2.97434 0.88318,0.73842 1.7483,1.50106 2.58106,2.29345 0,0 1.56865,3.64008 1.56865,3.64008 z"
         id="path4846"
         style="fill:#ffffff;stroke-width:1.26499999;stroke-linecap:butt;stroke-linejoin:miter;stroke-miterlimit:4;stroke-dasharray:none;stroke-dashoffset:0" />
      <path
         inkscape:connector-curvature="0"
         d="m 107.16273,113.7289 c -0.0481,-1.37786 -0.51891,-2.69852 -0.89984,-4.01168 -0.47837,-2.03331 -0.83741,-4.09225 -1.26911,-6.13564 -0.4187,-1.70514 -0.53853,-3.45149 -0.61572,-5.19839 -0.0492,-0.82253 0.0187,-1.64935 -0.11956,-2.46615 -0.12139,-0.71747 -0.37036,-1.423 -0.60915,-2.1072 -0.0807,-0.20333 -0.41856,-1.07184 -0.53082,-1.28918 -0.0866,-0.1677 -0.39293,-0.6445 -0.30122,-0.47952 2.83784,5.10589 2.26118,3.30359 1.17661,2.4696 -0.21377,-0.14215 -0.44274,-0.25441 -0.67741,-0.35637 0,0 -1.651,-3.58254 -1.651,-3.58254 v 0 c 0.25841,0.10315 0.52071,0.20035 0.75241,0.35846 1.5809,0.8416 1.74599,2.2607 2.8207,4.10565 0.32441,0.55689 0.51012,1.1776 0.74195,1.77468 0.22392,0.7045 0.43456,1.40589 0.52514,2.14308 0.0752,0.61241 0.0601,1.02258 0.0752,1.63745 0.007,0.27659 0.0169,0.55309 0.0254,0.82965 0.0817,1.72463 0.25375,3.44235 0.63809,5.12923 0.41501,2.05104 0.76327,4.11847 1.31027,6.14023 0.40581,1.38253 0.80417,2.76709 1.00016,4.19802 0,0 -2.3921,-3.15938 -2.3921,-3.15938 z"
         id="path4848"
         style="fill:#ffffff;stroke-width:1.26499999;stroke-linecap:butt;stroke-linejoin:miter;stroke-miterlimit:4;stroke-dasharray:none;stroke-dashoffset:0" />
      <path
         inkscape:connector-curvature="0"
         d="m 134.47139,136.723 c -1.04055,-0.54074 -1.57487,-1.67676 -2.17533,-2.63084 -1.51028,-2.49288 -3.11931,-4.96901 -3.96023,-7.77745 -0.40889,-1.54716 -0.44488,-3.1489 -0.47471,-4.73836 -0.10298,-1.68924 -0.13744,-3.38327 -0.27595,-5.07002 -0.13543,-1.52097 -0.19105,-3.04778 -0.24865,-4.5733 -0.0836,-0.76819 0.0843,-1.58453 -0.20869,-2.31437 -0.0326,-0.0856 -0.053,-0.17689 -0.0979,-0.2567 -0.0476,-0.0846 -0.12781,-0.1477 -0.17683,-0.23152 -0.0593,-0.10147 -0.20553,-0.42231 -0.14618,-0.32086 3.17647,5.42844 2.13813,3.41051 1.24988,2.40262 -0.079,-0.0782 -0.15806,-0.15648 -0.23709,-0.23472 0,0 -1.49876,-3.61456 -1.49876,-3.61456 v 0 c 0.0812,0.0808 0.16235,0.16159 0.24352,0.24238 1.48468,1.34045 2.33873,3.28532 3.05843,5.12741 0.13088,0.75423 0.0272,1.52437 0.0693,2.28582 0.032,1.51647 0.10626,3.03103 0.24587,4.54175 0.10711,1.68504 0.13715,3.37461 0.24632,5.05981 0.0508,1.57643 0.11621,3.1668 0.57134,4.68916 0.25265,0.74827 0.52873,1.47814 0.87051,2.1915 0.12565,0.26227 0.5502,1.02409 0.39695,0.77693 -0.34463,-0.55586 -2.2947,-3.92284 -0.98829,-1.69503 1.31961,2.13033 -0.36434,-0.56614 0.86681,1.34108 0.27854,0.43151 0.52922,0.98194 1.03382,1.18362 0,0 1.63583,3.61565 1.63583,3.61565 z"
         id="path4860"
         style="fill:#ffffff;stroke-width:1.26499999;stroke-linecap:butt;stroke-linejoin:miter;stroke-miterlimit:4;stroke-dasharray:none;stroke-dashoffset:0" />
      <path
         inkscape:connector-curvature="0"
         d="m 115.71741,128.24307 c -1.32769,-0.37156 -2.72893,-0.32293 -4.09578,-0.35769 -2.08268,-0.16005 -4.15364,-0.44159 -6.2318,-0.64918 -1.75184,-0.11749 -3.45245,-0.53231 -5.14066,-0.98794 -0.79877,-0.20228 -1.56618,-0.51746 -2.38649,-0.63312 -0.72055,-0.10165 -1.46835,-0.0781 -2.19271,-0.0578 -0.21824,0.0153 -1.14827,0.0742 -1.38942,0.11536 -0.18605,0.0318 -0.73324,0.17921 -0.54823,0.1418 5.72562,-1.15779 3.83334,-1.15419 2.71,-0.37322 -0.20023,0.16067 -0.37659,0.34487 -0.54484,0.53763 0,0 -3.91435,0.48818 -3.91435,0.48818 v 0 c 0.1766,-0.21503 0.34868,-0.43556 0.56954,-0.60847 1.28096,-1.25168 2.6834,-0.97912 4.76722,-1.44446 0.62897,-0.14047 1.2768,-0.12943 1.91605,-0.16949 0.73923,1e-5 1.47147,0.0117 2.20147,0.14873 0.60641,0.11384 0.99273,0.25249 1.58329,0.42436 0.26572,0.0771 0.53222,0.15144 0.79836,0.22711 1.66834,0.44458 3.35748,0.80096 5.08153,0.94568 2.08037,0.22579 4.15617,0.52018 6.24864,0.61133 1.4405,0.0321 2.88065,0.0718 4.30372,0.31852 0,0 -3.73554,1.32265 -3.73554,1.32265 z"
         id="path4848-3"
         style="fill:#ffffff;stroke-width:1.26499999;stroke-linecap:butt;stroke-linejoin:miter;stroke-miterlimit:4;stroke-dasharray:none;stroke-dashoffset:0" />
    </g>
  </g>
</svg>
